HIERARCHY
ROOT Pelvis
{
	OFFSET 0.000000 0.000000 0.000000
	CHANNELS 6 Xposition Yposition Zposition Xrotation Yrotation Zrotation
	JOINT LeftUpLeg_virtual
	{
		OFFSET 0.000000 0.000000 0.000000
		CHANNELS 3 Xrotation Yrotation Zrotation
		JOINT LeftUpLeg
		{
			OFFSET 8.479700 -4.795502 -0.379100
			CHANNELS 3 Xrotation Yrotation Zrotation
			JOINT LeftLeg
			{
				OFFSET 0.024144 -32.555107 0.112900
				CHANNELS 3 Xrotation Yrotation Zrotation
				JOINT LeftFoot
				{
					OFFSET -0.024144 -32.638630 -3.012600
					CHANNELS 3 Xrotation Yrotation Zrotation
					JOINT LeftToeBase
					{
						OFFSET 0.970200 -13.225400 11.864200
						CHANNELS 3 Xrotation Yrotation Zrotation
						End Site
						{
							OFFSET 0 0 0
						}
					}
				}
			}
		}
	}
	JOINT RightUpLeg_virtual
	{
		OFFSET 0.000000 0.000000 0.000000
		CHANNELS 3 Xrotation Yrotation Zrotation
		JOINT RightUpLeg
		{
			OFFSET -8.479700 -4.795502 -0.379100
			CHANNELS 3 Xrotation Yrotation Zrotation
			JOINT RightLeg
			{
				OFFSET -0.023144 -32.555092 0.112900
				CHANNELS 3 Xrotation Yrotation Zrotation
				JOINT RightFoot
				{
					OFFSET 0.023144 -32.638641 -3.012700
					CHANNELS 3 Xrotation Yrotation Zrotation
					JOINT RightToeBase
					{
						OFFSET -0.970200 -13.225400 11.864200
						CHANNELS 3 Xrotation Yrotation Zrotation
						End Site
						{
							OFFSET 0 0 0
						}
					}
				}
			}
		}
	}
	JOINT Hips_virtual
	{
		OFFSET 0.000000 0.000000 0.000000
		CHANNELS 3 Xrotation Yrotation Zrotation
		JOINT Hips
		{
			OFFSET -0.000000 -0.000000 -0.000000
			CHANNELS 3 Xrotation Yrotation Zrotation
			JOINT Spine
			{
				OFFSET 0.000000 7.722000 1.166200
				CHANNELS 3 Xrotation Yrotation Zrotation
				JOINT Spine1
				{
					OFFSET 0.000000 12.024101 0.248800
					CHANNELS 3 Xrotation Yrotation Zrotation
					JOINT Spine2
					{
						OFFSET 0.000000 11.502998 -0.491200
						CHANNELS 3 Xrotation Yrotation Zrotation
						JOINT Neck_virtual
						{
							OFFSET 0.000000 0.000000 0.000000
							CHANNELS 3 Xrotation Yrotation Zrotation
							JOINT Neck
							{
								OFFSET 0.000000 18.430702 -3.123100
								CHANNELS 3 Xrotation Yrotation Zrotation
								JOINT Head
								{
									OFFSET 0.000000 9.051102 1.034000
									CHANNELS 3 Xrotation Yrotation Zrotation
									End Site
									{
										OFFSET 0 0 0
									}
								}
							}
						}
						JOINT LeftShoulder_virtual
						{
							OFFSET 0.000000 0.000000 0.000000
							CHANNELS 3 Xrotation Yrotation Zrotation
							JOINT LeftShoulder
							{
								OFFSET 6.197800 13.665199 -4.064700
								CHANNELS 3 Xrotation Yrotation Zrotation
								JOINT LeftArm
								{
									OFFSET 7.778100 -0.187103 -1.709300
									CHANNELS 3 Xrotation Yrotation Zrotation
									JOINT LeftForeArm
									{
										OFFSET 22.049376 0.000000 0.000000
										CHANNELS 3 Xrotation Yrotation Zrotation
										JOINT LeftHand
										{
											OFFSET 23.009392 0.000000 0.000000
											CHANNELS 3 Xrotation Yrotation Zrotation
											End Site
											{
												OFFSET 0 0 0
											}
										}
									}
								}
							}
						}
						JOINT RightShoulder_virtual
						{
							OFFSET 0.000000 0.000000 0.000000
							CHANNELS 3 Xrotation Yrotation Zrotation
							JOINT RightShoulder
							{
								OFFSET -6.197800 13.665199 -4.064700
								CHANNELS 3 Xrotation Yrotation Zrotation
								JOINT RightArm
								{
									OFFSET -7.778100 -0.187103 -1.709300
									CHANNELS 3 Xrotation Yrotation Zrotation
									JOINT RightForeArm
									{
										OFFSET -22.049376 0.000000 0.000000
										CHANNELS 3 Xrotation Yrotation Zrotation
										JOINT RightHand
										{
											OFFSET -23.009392 0.000000 0.000000
											CHANNELS 3 Xrotation Yrotation Zrotation
											End Site
											{
												OFFSET 0 0 0
											}
										}
									}
								}
							}
						}
					}
				}
			}
		}
	}
}
MOTION
Frames: 9
Frame Time: 0.03333333
2.008873 73.169487 -2.375368 0.000000 0.000000 0.000000 21.250313 -4.594096 -27.653247 -75.286047 -7.367603 26.350590 63.552991 -8.884654 9.978478 -14.222148 -2.960286 -2.797716 0.000000 0.000000 0.000000 21.250313 -4.594096 -27.653247 -36.110575 -32.547071 10.953581 39.621197 -10.838814 0.859284 -12.854991 -8.247373 8.683239 0.000000 0.000000 0.000000 21.250313 -4.594096 -27.653247 0.000000 0.000000 -0.000001 9.659215 1.987112 -16.126488 6.445040 2.740807 -10.688249 0.000000 0.000000 0.000000 6.249396 2.693591 -10.811389 -0.796397 4.356716 -3.690214 0.000000 0.000000 0.000000 6.249396 2.693591 -10.811389 0.763384 -2.243210 16.026713 -56.139606 -44.766631 -98.210020 -0.000027 -55.603890 -0.000023 0.000000 0.000000 0.000000 6.249396 2.693591 -10.811389 -0.201833 -4.974899 1.334801 14.246674 61.619795 1.246887 -0.000068 71.160148 0.000066 0.000000 0.000000 0.000000 
2.033794 73.217804 -2.395046 0.000000 0.000000 0.000000 21.047897 -4.861079 -27.290173 -75.081121 -6.821213 26.544717 63.442998 -8.920954 9.981166 -14.239672 -2.903154 -2.731996 0.000000 0.000000 0.000000 21.047897 -4.861079 -27.290173 -36.179505 -32.188585 10.702671 39.608144 -10.818504 0.935093 -12.782785 -8.103990 8.614276 0.000000 0.000000 0.000000 21.047897 -4.861079 -27.290173 0.000002 0.000000 0.000000 9.720258 1.952851 -16.042137 6.493367 2.713991 -10.616020 0.000000 0.000000 0.000000 6.300750 2.667747 -10.739125 0.207074 4.314708 -3.404720 0.000000 0.000000 0.000000 6.300750 2.667747 -10.739125 0.722165 -2.099710 15.969396 -55.551448 -45.310833 -97.712604 0.000013 -55.603009 0.000029 0.000000 0.000000 0.000000 6.300750 2.667747 -10.739125 -0.173795 -4.568112 0.662838 13.669607 61.935404 2.609997 0.000059 70.533936 -0.000077 0.000000 0.000000 0.000000 
2.043003 73.263359 -2.410839 0.000000 0.000000 0.000000 20.816077 -5.184237 -26.945643 -74.840486 -6.332052 26.785671 63.357982 -8.968937 9.985225 -14.279060 -2.771688 -2.697945 0.000000 0.000000 0.000000 20.816077 -5.184237 -26.945643 -36.205907 -31.801894 10.535415 39.587042 -10.808566 0.990026 -12.711821 -7.948703 8.542861 0.000000 0.000000 0.000000 20.816077 -5.184237 -26.945643 0.000000 0.000000 0.000000 9.768127 1.920191 -15.960405 6.534459 2.691596 -10.541845 0.000000 0.000000 0.000000 6.345200 2.646787 -10.664542 1.163589 4.299128 -3.121161 0.000000 0.000000 0.000000 6.345200 2.646787 -10.664542 0.658036 -1.924512 15.859508 -54.937930 -45.760013 -97.271524 0.000028 -55.535998 0.000024 0.000000 0.000000 0.000000 6.345200 2.646787 -10.664542 -0.134095 -4.148865 0.057187 13.311146 62.319992 3.667501 -0.000026 69.803714 0.000031 0.000000 0.000000 0.000000 
2.040970 73.304634 -2.430597 0.000000 0.000000 0.000000 20.570257 -5.560880 -26.619645 -74.580926 -5.906903 27.052778 63.293847 -9.027129 9.989817 -14.329093 -2.559992 -2.691329 0.000000 0.000000 0.000000 20.570257 -5.560880 -26.619645 -36.213752 -31.417709 10.442739 39.560258 -10.808558 1.003754 -12.635306 -7.768087 8.476566 0.000000 0.000000 0.000000 20.570257 -5.560880 -26.619645 0.000001 0.000001 -0.000001 9.807610 1.882799 -15.874825 6.573798 2.667611 -10.462880 0.000000 0.000000 0.000000 6.388352 2.625526 -10.584649 2.049137 4.309117 -2.841947 0.000000 0.000000 0.000000 6.388352 2.625526 -10.584649 0.564449 -1.708724 15.694801 -54.281416 -46.142518 -96.841345 -0.000005 -55.447933 -0.000023 0.000000 0.000000 0.000000 6.388352 2.625526 -10.584649 -0.081810 -3.700189 -0.513611 13.028894 62.754740 4.572284 -0.000045 69.013399 0.000042 0.000000 0.000000 0.000000 
2.031956 73.341202 -2.462856 0.000000 0.000000 0.000000 20.329162 -5.977220 -26.308372 -74.314466 -5.553593 27.311099 63.238932 -9.084362 9.992980 -14.374294 -2.257710 -2.709703 0.000000 0.000000 0.000000 20.329162 -5.977220 -26.308372 -36.233648 -31.052697 10.402164 39.531977 -10.817832 0.974131 -12.547625 -7.563637 8.416322 0.000000 0.000000 0.000000 20.329162 -5.977220 -26.308372 -0.000003 -0.000001 0.000002 9.846392 1.834842 -15.779228 6.617685 2.636587 -10.376584 0.000000 0.000000 0.000000 6.436663 2.598921 -10.496852 2.850638 4.337964 -2.563689 0.000000 0.000000 0.000000 6.436663 2.598921 -10.496852 0.446427 -1.456529 15.488661 -53.560916 -46.487401 -96.369420 -0.000045 -55.412061 -0.000058 0.000000 0.000000 0.000000 6.436663 2.598921 -10.496852 -0.015636 -3.206065 -1.084821 12.642363 63.185008 5.530735 -0.000034 68.235892 0.000060 0.000000 0.000000 0.000000 
2.018707 73.373337 -2.514870 0.000000 0.000000 0.000000 20.114296 -6.410875 -26.004460 -74.052248 -5.276441 27.519280 63.178738 -9.140605 9.996274 -14.397047 -1.857123 -2.750922 0.000000 0.000000 0.000000 20.114296 -6.410875 -26.004460 -36.302903 -30.696875 10.379169 39.511821 -10.835539 0.926809 -12.448656 -7.358875 8.353309 0.000000 0.000000 0.000000 20.114296 -6.410875 -26.004460 -0.000001 0.000000 -0.000001 9.894783 1.774302 -15.669282 6.672010 2.596401 -10.281415 0.000000 0.000000 0.000000 6.495883 2.564452 -10.399908 3.561883 4.373569 -2.276896 0.000000 0.000000 0.000000 6.495883 2.564452 -10.399908 0.318815 -1.185431 15.276717 -52.788688 -46.827381 -95.824685 -0.000009 -55.492644 -0.000005 0.000000 0.000000 0.000000 6.495883 2.564452 -10.399908 0.064308 -2.668170 -1.666147 12.004911 63.535048 6.712386 -0.000097 67.556711 0.000074 0.000000 0.000000 0.000000 
2.002090 73.402924 -2.592012 0.000000 0.000000 0.000000 19.931225 -6.835727 -25.696613 -73.791615 -5.064164 27.650057 63.097984 -9.206606 9.999949 -14.381971 -1.362120 -2.808989 0.000000 0.000000 0.000000 19.931225 -6.835727 -25.696613 -36.444947 -30.309907 10.334971 39.511948 -10.860252 0.910258 -12.341748 -7.193331 8.269977 0.000000 0.000000 0.000000 19.931225 -6.835727 -25.696613 0.000001 0.000000 0.000000 9.963842 1.704554 -15.542850 6.741440 2.549396 -10.177073 0.000000 0.000000 0.000000 6.570271 2.523460 -10.293939 4.179537 4.401181 -1.970505 0.000000 0.000000 0.000000 6.570271 2.523460 -10.293939 0.228751 -0.953299 15.112161 -51.984928 -47.148212 -95.169595 -0.000016 -55.744794 -0.000027 0.000000 0.000000 0.000000 6.570271 2.523460 -10.293939 0.154800 -2.111258 -2.230783 11.059672 63.733520 8.184428 -0.000024 67.046407 0.000011 0.000000 0.000000 0.000000 
1.981300 73.432182 -2.694960 0.000000 0.000000 0.000000 19.792141 -7.228155 -25.370311 -73.541405 -4.894441 27.687249 62.983538 -9.309141 10.005013 -14.317198 -0.793979 -2.874854 0.000000 0.000000 0.000000 19.792141 -7.228155 -25.370311 -36.686490 -29.843979 10.231143 39.544295 -10.890238 0.977128 -12.233950 -7.111575 8.148447 0.000000 0.000000 0.000000 19.792141 -7.228155 -25.370311 0.000001 0.000000 0.000000 10.063806 1.633670 -15.400108 6.829766 2.501674 -10.064618 0.000000 0.000000 0.000000 6.663156 2.481050 -10.180560 4.701967 4.406933 -1.639182 0.000000 0.000000 0.000000 6.663156 2.481050 -10.180560 0.202719 -0.807871 15.039762 -51.196400 -47.421447 -94.421976 -0.000021 -56.166736 -0.000004 0.000000 0.000000 0.000000 6.663156 2.481050 -10.180560 0.249083 -1.576474 -2.726413 9.865778 63.742003 9.884873 0.000032 66.731508 -0.000035 0.000000 0.000000 0.000000 
1.955162 73.464645 -2.820534 0.000000 0.000000 0.000000 19.695276 -7.573981 -25.007696 -73.301563 -4.726685 27.633803 62.821444 -9.450666 10.011590 -14.199056 -0.187118 -2.941857 0.000000 0.000000 0.000000 19.695276 -7.573981 -25.007696 -37.032644 -29.257132 10.041253 39.613444 -10.922792 1.161668 -12.130929 -7.143727 7.977908 0.000000 0.000000 0.000000 19.695276 -7.573981 -25.007696 -0.000000 -0.000001 -0.000001 10.202578 1.572636 -15.244841 6.941140 2.461450 -9.947739 0.000000 0.000000 0.000000 6.778296 2.445100 -10.063872 5.131811 4.381349 -1.289478 0.000000 0.000000 0.000000 6.778296 2.445100 -10.063872 0.262468 -0.799312 15.081500 -50.440998 -47.607443 -93.589492 -0.000046 -56.735393 -0.000053 0.000000 0.000000 0.000000 6.778296 2.445100 -10.063872 0.338233 -1.107443 -3.097289 8.580119 63.577402 11.646409 -0.000069 66.579619 0.000054 0.000000 0.000000 0.000000 
